<svg width="150" height="150" viewBox="0 0 150 150" fill="none" xmlns="http://www.w3.org/2000/svg">
<g clip-path="url(#clip0)">
<path d="M74.8835 89.4449C72.4766 89.4449 70.0016 91.3704 70.0016 94.7408C70.0016 97.822 72.1777 99.9984 74.8835 99.9984C77.1171 99.9984 78.1125 98.5017 78.1125 98.5017V99.1541C78.1125 99.4625 78.4046 99.8065 78.766 99.8065H80.3805V89.6751H78.1125V90.9607C78.1125 90.9607 77.1087 89.4448 74.8835 89.4448V89.4449ZM75.2875 91.5165C77.269 91.5165 78.3083 93.2562 78.3083 94.7401C78.3083 96.3928 77.0743 97.9625 75.2917 97.9625C73.8017 97.9625 72.309 96.7577 72.309 94.7183C72.309 92.8773 73.5935 91.5165 75.2875 91.5165Z" fill="black"/>
<path d="M83.5327 99.8064C83.1842 99.8064 82.8792 99.5569 82.8792 99.154V89.675H85.1472V90.9288C85.6611 90.1576 86.6652 89.4417 88.2063 89.4417C90.7252 89.4417 92.0665 91.4463 92.0665 93.3208V99.8064H90.4904C90.0772 99.8064 89.7985 99.461 89.7985 99.1156V93.8197C89.7985 92.7806 89.1608 91.5187 87.6861 91.5187C86.0947 91.5187 85.1472 93.0201 85.1472 94.4337V99.8064L83.5327 99.8064Z" fill="black"/>
<path d="M98.6781 89.4449C96.2711 89.4449 93.7961 91.3704 93.7961 94.7408C93.7961 97.822 95.9722 99.9984 98.6781 99.9984C100.912 99.9984 101.907 98.5017 101.907 98.5017V99.1541C101.907 99.4625 102.199 99.8065 102.561 99.8065H104.175V84.6094H101.907V90.9607C101.907 90.9607 100.903 89.4448 98.6781 89.4448V89.4449ZM99.0821 91.5165C101.063 91.5165 102.103 93.2562 102.103 94.7401C102.103 96.3928 100.869 97.9625 99.0863 97.9625C97.5962 97.9625 96.1035 96.7577 96.1035 94.7183C96.1035 92.8773 97.388 91.5165 99.0821 91.5165Z" fill="black"/>
<path d="M107.327 99.8064C106.979 99.8064 106.674 99.5569 106.674 99.154V89.675H108.942V91.3636C109.332 90.4176 110.174 89.5599 111.671 89.5599C112.088 89.5599 112.478 89.6366 112.478 89.6366V91.9776C112.478 91.9776 111.991 91.7857 111.402 91.7857C109.811 91.7857 108.942 93.2871 108.942 94.7007V99.8064H107.327Z" fill="black"/>
<path d="M126.24 99.8064C125.891 99.8064 125.586 99.5569 125.586 99.154V89.675H127.854V99.8064L126.24 99.8064Z" fill="black"/>
<path d="M134.504 89.4449C132.097 89.4449 129.622 91.3704 129.622 94.7408C129.622 97.822 131.799 99.9984 134.504 99.9984C136.738 99.9984 137.733 98.5017 137.733 98.5017V99.1541C137.733 99.4625 138.025 99.8065 138.387 99.8065H140.001V84.6094H137.733V90.9607C137.733 90.9607 136.73 89.4448 134.504 89.4448V89.4449ZM134.908 91.5165C136.89 91.5165 137.929 93.2562 137.929 94.7401C137.929 96.3928 136.695 97.9625 134.913 97.9625C133.423 97.9625 131.93 96.7577 131.93 94.7183C131.93 92.8773 133.214 91.5165 134.908 91.5165Z" fill="black"/>
<path d="M126.704 87.4903C127.533 87.4903 128.204 86.82 128.204 85.9931C128.204 85.1663 127.533 84.496 126.704 84.496C125.876 84.496 125.205 85.1663 125.205 85.9931C125.205 86.82 125.876 87.4903 126.704 87.4903Z" fill="black"/>
<path d="M118.46 89.4414C115.939 89.4414 113.169 91.3199 113.169 94.7227C113.169 97.8237 115.528 99.9987 118.454 99.9987C122.06 99.9987 123.82 97.1049 123.82 94.7424C123.82 91.8433 121.553 89.4414 118.46 89.4414V89.4414ZM118.468 91.5559C120.211 91.5559 121.511 92.9585 121.511 94.7291C121.511 96.5305 120.131 97.9205 118.473 97.9205C116.934 97.9205 115.438 96.6701 115.438 94.7594C115.438 92.8168 116.861 91.5559 118.468 91.5559V91.5559Z" fill="black"/>
<path d="M122.085 50.7987L127.888 40.7634C128.215 40.2008 128.017 39.4861 127.461 39.1592C126.905 38.8323 126.182 39.0224 125.862 39.585L119.983 49.7496C115.498 47.7045 110.449 46.5641 105.019 46.5641C99.5896 46.5641 94.5407 47.7045 90.0553 49.7496L84.1764 39.585C83.8489 39.0224 83.1331 38.8323 82.5696 39.1592C82.006 39.4861 81.8157 40.2008 82.1431 40.7634L87.9459 50.7987C77.9395 56.2117 71.162 66.3231 70.0425 78.1602H139.996C138.877 66.323 132.099 56.2116 122.085 50.7987H122.085ZM88.9587 68.353C87.3367 68.353 86.0269 67.0378 86.0269 65.426C86.0269 63.8067 87.3443 62.499 88.9587 62.499C90.5808 62.499 91.8906 63.8143 91.8906 65.426C91.8982 67.0378 90.5808 68.353 88.9587 68.353ZM121.072 68.353C119.45 68.353 118.14 67.0378 118.14 65.426C118.14 63.8067 119.458 62.499 121.072 62.499C122.694 62.499 124.004 63.8143 124.004 65.426C124.012 67.0378 122.694 68.353 121.072 68.353Z" fill="#32DE84"/>
</g>
<path d="M65.4609 77.957C65.2734 77.957 65.1562 77.9336 65.1094 77.8867C63.8906 77.6758 62.7305 77.5352 61.6289 77.4648C60.5508 77.3711 59.4844 77.3008 58.4297 77.2539C59.2969 78.2617 60.0234 79.4922 60.6094 80.9453C61.2188 82.375 61.5234 84.0742 61.5234 86.043C61.5234 87.918 61.2305 89.6172 60.6445 91.1406C60.082 92.6406 59.3086 93.9883 58.3242 95.1836C57.3398 96.3555 56.1797 97.375 54.8438 98.2422C53.5312 99.0859 52.125 99.7891 50.625 100.352C49.1484 100.914 47.6133 101.324 46.0195 101.582C44.4258 101.863 42.8672 102.004 41.3438 102.004C37.3594 101.887 33.7969 101.219 30.6562 100C27.5156 98.7578 24.8438 97.0234 22.6406 94.7969C20.4375 92.5703 18.75 89.875 17.5781 86.7109C16.4297 83.5469 15.8555 79.9609 15.8555 75.9531C15.8555 72.3906 16.2305 69.2266 16.9805 66.4609C17.7305 63.6719 18.75 61.2344 20.0391 59.1484C21.3516 57.0391 22.8867 55.2695 24.6445 53.8398C26.4023 52.3867 28.2656 51.2148 30.2344 50.3242C32.2266 49.4102 34.2891 48.7539 36.4219 48.3555C38.5547 47.9336 40.6523 47.7227 42.7148 47.7227C44.7773 47.7227 46.6289 47.9453 48.2695 48.3906C49.9102 48.8125 51.375 49.3516 52.6641 50.0078C53.9531 50.6641 55.0547 51.4023 55.9688 52.2227C56.9062 53.0195 57.6797 53.7812 58.2891 54.5078L60.2227 48.9531C60.3633 48.5781 60.5977 48.2852 60.9258 48.0742C61.2539 47.8398 61.5938 47.7227 61.9453 47.7227C62.5312 47.7227 62.9883 47.9336 63.3164 48.3555C63.6445 48.7539 63.8086 49.1641 63.8086 49.5859C63.8086 49.6562 63.7969 49.75 63.7734 49.8672C63.75 49.9609 63.7148 50.0664 63.668 50.1836L58.0781 66.5312C57.9609 66.8828 57.7383 67.1758 57.4102 67.4102C57.082 67.6211 56.7188 67.7266 56.3203 67.7266C55.7812 67.7266 55.3359 67.5391 54.9844 67.1641C54.6328 66.7656 54.457 66.332 54.457 65.8633C54.457 65.793 54.4688 65.7109 54.4922 65.6172C54.5156 65.5234 54.5508 65.418 54.5977 65.3008L56.8477 58.7266C56.2617 57.8125 55.5469 56.9336 54.7031 56.0898C53.8828 55.2227 52.9688 54.4609 51.9609 53.8047C50.9766 53.1484 49.9336 52.6211 48.832 52.2227C47.7305 51.8242 46.6289 51.625 45.5273 51.625C42.7148 51.625 40.2305 52.2344 38.0742 53.4531C35.918 54.6484 34.1016 56.3008 32.625 58.4102C31.1719 60.4961 30.0703 62.9336 29.3203 65.7227C28.5703 68.5117 28.1953 71.4883 28.1953 74.6523C28.1953 76.0586 28.2773 77.6172 28.4414 79.3281C28.6289 81.0391 28.9219 82.7734 29.3203 84.5312C29.7422 86.2891 30.2812 87.9883 30.9375 89.6289C31.6172 91.2695 32.4492 92.7344 33.4336 94.0234C34.418 95.3125 35.5664 96.3438 36.8789 97.1172C38.1914 97.8906 39.7031 98.2773 41.4141 98.2773C44.2734 98.2773 46.7344 97.9258 48.7969 97.2227C50.8594 96.5195 52.5469 95.5938 53.8594 94.4453C55.1953 93.2969 56.1797 91.9844 56.8125 90.5078C57.4453 89.0312 57.7617 87.5195 57.7617 85.9727C57.7617 84.6133 57.5742 83.4414 57.1992 82.457C56.8242 81.4492 56.3789 80.6172 55.8633 79.9609C55.3477 79.2812 54.8203 78.7539 54.2812 78.3789C53.7422 78.0039 53.3203 77.7461 53.0156 77.6055C51.7734 77.7695 50.6602 77.9805 49.6758 78.2383C48.7148 78.4961 47.8945 78.7422 47.2148 78.9766C46.5586 79.2109 46.043 79.4219 45.668 79.6094C45.3164 79.7734 45.1289 79.8555 45.1055 79.8555C44.8477 80.043 44.5547 80.1367 44.2266 80.1367C43.6875 80.1367 43.2422 79.9492 42.8906 79.5742C42.5391 79.1758 42.3633 78.7422 42.3633 78.2734C42.3633 77.5938 42.6797 77.0547 43.3125 76.6562C43.3828 76.6328 43.7578 76.457 44.4375 76.1289C45.1172 75.8008 46.0664 75.4492 47.2852 75.0742C48.5273 74.6758 50.0273 74.3242 51.7852 74.0195C53.5664 73.7148 55.582 73.5625 57.832 73.5625C60.2461 73.5625 62.8945 73.8086 65.7773 74.3008C66.1992 74.3711 66.5508 74.582 66.832 74.9336C67.1367 75.2617 67.2891 75.6484 67.2891 76.0938C67.2891 76.7031 67.0781 77.1719 66.6562 77.5C66.2344 77.8047 65.8359 77.957 65.4609 77.957Z" fill="black"/>
<defs>
<clipPath id="clip0">
<rect width="70" height="61" fill="white" transform="translate(70 39)"/>
</clipPath>
</defs>
</svg>
